PathFileType	4	(X/Y/Z)	C:/Users/beibeiliu/ov580/test_trc/User1\sequence.4_training_dense_left.trc
DataRate	CameraRate	NumFrames	NumMarkers	Units	OrigDataRate	OrigDataStartFrame	OrigNumFrames
120	120	18	19	mm	120	32	251
Frame#	Time	ThumbCMC			ThumbMCP			ThumbIP			ThumbTip			IndexMCP			IndexPIP			IndexTip			MiddleMCP			MiddlePIP			MiddleTip			RingMCP			RingPIP			RingTip			PinkyMCP			PinkyPIP			PinkyTip			BackHand1			BackHand2			BackHand3	
		X0	Y0	Z0	X1	Y1	Z1	X2	Y2	Z2	X3	Y3	Z3	X4	Y4	Z4	X5	Y5	Z5	X6	Y6	Z6	X7	Y7	Z7	X8	Y8	Z8	X9	Y9	Z9	X10	Y10	Z10	X11	Y11	Z11	X12	Y12	Z12	X13	Y13	Z13	X14	Y14	Z14	X15	Y15	Z15	X16	Y16	Z16	X17	Y17	Z17	X18	Y18	Z18	
31	0.258333	-174.414	97.3592	17.9003	-145.906	85.115	2.04047	-130.49	82.7778	-15.0343	-107.358	77.6361	-27.6929	-180.612	126.13	-66.2236	-171.242	119.526	-93.2168	-158.699	91.095	-107.942	-202.553	120.49	-78.8087	-190.326	106.923	-107.364	-174.303	76.2957	-118.392	-224.526	102.591	-76.6914	-211.928	92.2013	-103.392	-195.38	65.8771	-114.003	-244.673	80.5673	-63.1699	-237.877	69.9811	-89.6588	-220.395	59.915	-105.758	-238.286	106.535	-17.5223	-242.237	99.3782	17.2659	-205.98	117.56	4.67228	
32	0.266667	-174.162	97.621	16.4275	-149.502	85.3853	0.761558	-128.48	83.2352	-16.0117	-112.351	78.1179	-33.2243	-180.073	128.402	-60.3929	-173.356	119.371	-93.4901	-161.454	89.858	-104.47	-205.724	121.302	-74.9343	-192.648	110.238	-106.343	-174.97	77.6671	-112.163	-222.749	106.553	-75.6867	-212.857	93.173	-103.468	-196.398	66.4701	-109.256	-244.909	81.4925	-65.1283	-232.517	74.3648	-88.6067	-211.146	58.4425	-102.931	-239.653	106.699	-18.0861	-242.692	98.8668	17.5646	-212.396	114.751	5.01278	
33	0.275	-172.732	99.6781	17.9718	-148.815	86.9341	-1.81458	-128.826	85.0729	-22.9062	-115.497	78.2808	-36.6911	-185.22	128.736	-62.3826	-176.239	119.657	-93.5648	-160.626	89.2507	-98.2683	-204.237	124.138	-76.9427	-191.983	110.782	-104.947	-175.415	78.6116	-106.355	-222.035	107.456	-77.8559	-210.699	92.4858	-102.306	-193.471	62.9767	-102.074	-243.473	83.3065	-69.4929	-228.341	74.2651	-88.3638	-207.624	57.5134	-99.0567	-237.6	108.439	-17.4487	-243.955	101.121	13.5417	-213.589	118.641	4.51042	
34	0.283333	-175.594	99.5275	16.5527	-149.515	85.6193	-2.71078	-134.121	83.6656	-23.8084	-120.081	78.124	-44.3168	-184.489	131.393	-61.0924	-173.786	117.203	-93.6176	-161.68	90.0065	-93.3529	-204.52	126.107	-77.9976	-189.954	107.62	-104.446	-172.97	73.9493	-95.4026	-225.088	107.419	-77.5819	-205.005	91.0783	-102.137	-190.978	61.4555	-93.2432	-242.697	84.2685	-64.7445	-223.658	73.9164	-88.8493	-197.953	57.9286	-87.8191	-238.481	107.918	-17.4156	-245.982	98.2246	16.7761	-215.638	118.042	4.19103	
35	0.291667	-175.104	99.2789	17.0577	-151.337	87.9163	-9.39092	-138.721	84.491	-29.7863	-125.8	77.2415	-51.3231	-185.423	134.215	-62.9859	-170.043	119.353	-92.367	-158.721	91.2987	-86.3892	-208.492	123.951	-79.9579	-187.248	106.84	-101.874	-170.822	75.6783	-87.9786	-224.918	105.771	-78.9254	-202.853	86.918	-100.3	-189.189	63.4954	-85.1479	-239.161	85.0406	-71.067	-217.625	72.1595	-87.1552	-196.746	55.1553	-78.7168	-242.213	106.914	-20.3953	-248.65	97.3937	14.0674	-216.322	116.127	5.5213	
36	0.3	-175.886	102.552	15.1151	-153.752	90.2451	-12.443	-140.972	86.2735	-33.7793	-124.5	78.8382	-56.509	-190.041	131.967	-65.7969	-176.362	118.803	-91.434	-159.914	89.5366	-79.6781	-208.783	123.797	-78.0701	-187.28	108.225	-100.853	-174.551	75.4451	-82.458	-224.631	103.712	-77.9184	-203.091	86.8224	-97.5096	-186.323	62.8046	-73.5047	-234.672	83.7853	-70.8026	-213.469	71.9969	-83.1275	-193.225	53.2396	-66.3736	-244.75	101.699	-19.0527	-248.63	96.0845	12.4002	-218.72	116.638	4.17012	
37	0.308333	-178.031	103.987	11.4753	-153.988	92.8055	-15.8888	-142.005	87.8688	-36.1684	-128.115	80.274	-60.2624	-189.59	132.41	-70.2708	-172.012	115.917	-90.4416	-155.331	92.3941	-71.7957	-210.984	121.125	-77.7185	-187.817	104.065	-99.4286	-175.222	76.5995	-76.1694	-224.574	100.655	-79.4752	-196.256	82.4238	-93.7009	-188.707	60.8757	-65.9692	-237.992	80.6852	-67.9135	-213.073	67.6764	-83.0564	-191.922	58.7229	-61.5787	-241.556	102.108	-16.5864	-251.073	91.5332	12.46	-217.42	119.918	3.48229	
38	0.316667	-180.451	105.199	10.7337	-152.105	93.2274	-14.8124	-140.303	90.3403	-39.8364	-134.874	80.3915	-61.7931	-190.094	134.625	-65.8728	-168.082	118.791	-88.2214	-157.191	92.7433	-66.8419	-207.321	124.557	-77.3941	-185.578	103.488	-97.6949	-174.19	77.6545	-68.2145	-219.589	101.586	-80.5962	-195.331	81.0032	-91.9705	-186.831	64.663	-63.4512	-232.954	80.3421	-70.4875	-210.159	66.0073	-81.494	-192.893	55.935	-51.0275	-243.557	98.9469	-19.2183	-246.377	93.5726	12.6666	-219.039	120.92	4.52054	
39	0.325	-181.043	105.564	10.2075	-157.31	93.5866	-15.3468	-142.601	91.8396	-44.4295	-136.666	82.5852	-71.1568	-188.247	134.032	-70.7429	-169.965	118.687	-87.6877	-155.853	94.9404	-60.9999	-208.484	120.851	-82.3274	-182.908	100.487	-94.9993	-174.669	78.7866	-67.788	-218.104	100.719	-79.8216	-193.341	78.4738	-88.4175	-188.219	64.0764	-56.6032	-231.166	78.4468	-72.9706	-206.176	65.3254	-78.2235	-195.898	59.1913	-46.9145	-242.489	102.048	-18.8823	-247.412	90.0329	11.4925	-218.402	119.376	6.19273	
40	0.333333	-175.291	108.319	9.43579	-155.309	96.6435	-19.4298	-142.914	94.9714	-45.475	-136.946	85.1567	-71.7101	-188.777	133.961	-71.4341	-166.949	116.507	-84.8054	-158.536	94.5706	-59.0338	-206.854	120.161	-81.2677	-181.818	100.852	-94.1662	-170.224	82.7202	-61.1224	-218.503	97.4076	-81.0456	-191.251	78.4703	-87.6304	-186.6	68.917	-52.3039	-229.993	79.4485	-69.8408	-204.646	63.9397	-77.3134	-192.417	62.2663	-45.5317	-244.315	99.1656	-23.2871	-246.157	89.8509	12.25	-221.437	118.647	4.65152	
41	0.341667	-175.173	109.079	10.4741	-155.661	95.5527	-16.9198	-142.014	95.6396	-48.664	-141.678	86.9409	-73.3578	-186.873	135.371	-67.1452	-166.873	117.728	-84.7219	-158.97	95.5246	-57.3899	-205.426	119.783	-81.8721	-178.821	100.392	-92.4244	-173.758	79.6759	-58.7516	-218.084	96.392	-80.6453	-188.504	79.8898	-85.0965	-184.85	71.2966	-51.7292	-228.87	75.2883	-72.4546	-200.826	63.7717	-74.5594	-193.216	59.4711	-40.4906	-241.556	99.1126	-21.0589	-242.426	90.1854	12.7199	-218.384	118.361	6.73952	
42	0.35	-176.323	108.151	7.33168	-151.019	99.0958	-18.7957	-147.019	96.2393	-50.0062	-143.259	87.5156	-71.9055	-185.257	137.92	-66.1122	-162.864	116.237	-81.693	-155.728	98.5874	-50.4312	-202.482	119.405	-82.1314	-177.445	98.5532	-90.7783	-169.911	84.1517	-52.8281	-215.007	95.2438	-79.7475	-187.418	74.5967	-82.5526	-184.111	70.7769	-49.6357	-225.434	74.11	-71.8666	-196.796	64.2312	-73.0521	-189.488	62.5364	-40.8956	-240.142	97.3837	-18.6924	-241.889	86.4968	13.2319	-218.662	116.406	6.20928	
43	0.358333	-174.944	109.557	9.15146	-154.509	100.245	-20.7072	-144.911	98.2942	-46.361	-142.507	89.1024	-76.1189	-187.658	134.425	-69.3852	-162.61	120.401	-83.1843	-154.666	99.6496	-54.2414	-204.505	117.758	-79.1812	-172.373	100.533	-88.6185	-169.852	84.5263	-54.59	-210.187	94.992	-81.7418	-184.535	77.4946	-83.8329	-183.813	68.934	-48.4734	-219.642	75.5229	-72.3572	-193.573	63.7656	-72.6996	-185.316	62.7592	-42.0357	-238.22	97.8162	-21.4549	-243.006	82.9239	12.2296	-217.427	116.622	6.93419	
44	0.366667	-177.361	106.91	10.2455	-150.21	101.362	-20.8004	-142.099	101.919	-51.9977	-144.406	91.4657	-74.8367	-185.708	136.029	-66.3351	-162.922	119.414	-82.879	-155.002	100.386	-50.3279	-201.956	119.477	-77.1223	-174.865	101.054	-90.1226	-167.061	85.8963	-52.6786	-208.413	92.6785	-82.5417	-181.926	77.1123	-83.3788	-182.061	69.5201	-47.5771	-219.894	73.2111	-69.1953	-189.272	61.6394	-69.7271	-185.711	66.0292	-36.6846	-236.67	94.0512	-20.0804	-237.707	85.0406	12.5618	-217.174	118.351	4.1372	
45	0.375	-174.082	108.116	8.05939	-150.365	101.49	-24.1085	-144.456	98.5456	-49.0393	-140.312	91.1212	-72.9688	-183.923	136.066	-67.1049	-158.848	118.883	-79.8136	-152.862	102.238	-49.3107	-198.686	117.881	-80.1356	-171.387	96.4876	-86.4777	-166.132	85.1277	-51.8643	-206.318	95.506	-79.684	-179.16	78.0317	-81.7623	-180.532	71.5771	-44.3798	-214.211	70.0824	-72.6195	-187.296	59.812	-69.2626	-182.358	64.3496	-37.6589	-237.334	89.7426	-20.5794	-237.258	83.3117	14.923	-216.176	114.654	5.63817	
46	0.383333	-172.57	111.37	5.6829	-147.105	102.884	-23.3908	-142.744	100.602	-50.6458	-144.912	90.3258	-77.4099	-183.242	136.317	-66.8056	-159.583	118.264	-81.4255	-155.003	99.9026	-48.747	-196.425	118.85	-80.1913	-166.203	98.4124	-84.9727	-165.812	85.5591	-50.2219	-207.168	89.3118	-80.6844	-174.701	77.4629	-79.5948	-177.972	69.4033	-45.7573	-210.375	68.1946	-73.0859	-184.499	62.7004	-69.368	-182.457	64.5693	-36.9718	-233.827	92.7331	-21.9632	-235.199	79.9447	13.3127	-214.483	114.925	4.4702	
47	0.391667	-170.141	110.545	6.25349	-150.575	101.675	-25.4428	-139.463	102.932	-54.9789	-138.536	91.5078	-79.2931	-180.786	135.195	-70.2522	-157.399	119.827	-80.1183	-150.581	102.984	-47.1455	-197.479	115.701	-78.7942	-167.046	95.9517	-86.1529	-163.753	86.4436	-47.6517	-200.558	87.7044	-82.4659	-172.119	76.4079	-77.6374	-175.886	70.2511	-42.5808	-208.617	68.2462	-70.1091	-180.346	59.7965	-65.0315	-182.722	65.1061	-32.5213	-231.224	87.5305	-20.558	-233.317	81.8325	10.7336	-214.785	114.44	4.02084	
48	0.4	-170.69	109.096	8.03212	-149.141	102.02	-24.9343	-138.165	103.732	-54.8036	-143.039	90.636	-79.6688	-182.092	134.216	-69.8705	-156.728	115.644	-80.2685	-151.668	102.074	-47.0068	-196.627	111.725	-80.115	-162.749	97.7149	-83.8498	-162.443	88.7028	-44.9393	-199.441	88.6537	-78.438	-169.718	70.8614	-75.0395	-174.22	74.614	-39.8422	-203.501	63.054	-72.5982	-175.917	59.7029	-61.7844	-178.359	64.4028	-33.154	-231.705	84.4558	-21.587	-231.339	77.2593	8.39164	-216.251	108.531	3.17403	
